<svg xmlns="http://www.w3.org/2000/svg" id="Layer_1" data-name="Layer 1" width="815.33" height="81.35">  <defs id="defs12">    <style id="style10">      .cls-2{fill:#e0001b}    </style>  </defs>  <path id="rect16" fill="none" d="M-156.67-155.09H971.92v391.7H-156.67z"/>  <path class="cls-2" d="M47.26 79.84H28L0 1.53h20.3l17.37 52.46L55.04 1.53h20.29z" id="path18" fill="#e0001b"/>  <path class="cls-2" d="M86.77 79.84V1.55h18.46v78.29z" id="path20" fill="#e0001b"/>  <path class="cls-2" d="M118.33 64.33l13.82-8.32q4.13 9.53 13.07 9.52a12.27 12.27 0 0 0 7.56-2.12 6.84 6.84 0 0 0 2.85-5.57 7.22 7.22 0 0 0-2.18-5.25q-2.17-2.2-11.92-6.62-11.35-5-15.48-10.4a20.86 20.86 0 0 1-4.13-13.1 20.49 20.49 0 0 1 7.31-15.94Q136.54.05 147.78.05q16.33 0 23.68 12.78l-12.79 8.26a11.83 11.83 0 0 0-10.89-6.13 9.18 9.18 0 0 0-6 1.86 5.86 5.86 0 0 0-2.29 4.73 6.34 6.34 0 0 0 2.41 5q2.4 2.06 10.43 5.79 12 5.5 16.83 11.09a20.57 20.57 0 0 1 4.88 14 21.1 21.1 0 0 1-8.37 17.17q-8.38 6.74-20.7 6.73-18.06.02-26.64-17z" id="path22" fill="#e0001b"/>  <path class="cls-2" d="M187.57 79.84V1.55h18.46v78.29z" id="path24" fill="#e0001b"/>  <path class="cls-2" d="M257.58 17.84v62h-18.41v-62h-21.15V1.55h60.71v16.29z" id="path26" fill="#e0001b"/>  <path class="cls-2" d="M326.44 79.84V1.55h18.41v62h30.1v16.29z" id="path28" fill="#e0001b"/>  <path class="cls-2" d="M425.52 81.35q-17.78 0-29.73-11.75t-12-28.95a38.6 38.6 0 0 1 11.92-28.87Q407.71.05 425.47 0q17.76-.05 29.86 11.69 12 11.7 12 29t-12 29q-12 11.67-29.81 11.66zm0-16.51a22.19 22.19 0 0 0 16.65-6.91 25.59 25.59 0 0 0 0-34.48 23.5 23.5 0 0 0-33.28 0 25.5 25.5 0 0 0 0 34.38 22.06 22.06 0 0 0 16.63 7.01z" id="path30" fill="#e0001b"/>  <path class="cls-2" d="M533.02 79.84l-34.4-48.5v48.5h-18.4V1.55h18.51l34.92 49.07V1.55h18.4v78.29z" id="path32" fill="#e0001b"/>  <path class="cls-2" d="M567.6 79.84V1.55h25.22q20 0 31.91 10.4t11.9 28.24q0 18.92-11.93 29.3-11.93 10.38-33 10.37zm18.4-63v47.81h5.05q12.78 0 20-6.3 7.22-6.3 7.19-17.55-.06-11.52-7.22-17.74-7.16-6.22-19.97-6.22z" id="path34" fill="#e0001b"/>  <path class="cls-2" d="M688.75 81.35q-17.77 0-29.73-11.75t-12-28.95a38.65 38.65 0 0 1 11.93-28.87Q670.95.05 688.71 0q17.76-.05 29.78 11.69 12 11.7 12 29t-12 29q-11.91 11.67-29.74 11.66zm0-16.51a22.19 22.19 0 0 0 16.65-6.91 25.59 25.59 0 0 0 0-34.48 23.5 23.5 0 0 0-33.28 0 25.5 25.5 0 0 0 0 34.38 22.06 22.06 0 0 0 16.63 7.01z" id="path36" fill="#e0001b"/>  <path class="cls-2" d="M796.25 79.84l-34.4-48.5v48.5h-18.41V1.55h18.52l34.92 49.07V1.55h18.45v78.29z" id="path38" fill="#e0001b"/></svg>